<svg aria-hidden="true" style="position: absolute; width: 0; height: 0; overflow: hidden;" version="1.1" xmlns="http://www.w3.org/2000/svg" xmlns:xlink="http://www.w3.org/1999/xlink">
<defs>
<symbol id="icon-arrow-right2" viewBox="0 0 32 32">
<path d="M19.414 27.414l10-10c0.781-0.781 0.781-2.047 0-2.828l-10-10c-0.781-0.781-2.047-0.781-2.828 0s-0.781 2.047 0 2.828l6.586 6.586h-19.172c-1.105 0-2 0.895-2 2s0.895 2 2 2h19.172l-6.586 6.586c-0.39 0.39-0.586 0.902-0.586 1.414s0.195 1.024 0.586 1.414c0.781 0.781 2.047 0.781 2.828 0z"></path>
</symbol>
<symbol id="icon" width="25" height="6" viewBox="0 0 25 6" fill="none" >
<ellipse cx="12.4179" cy="3" rx="2.86567" ry="3" fill="white"/>
<ellipse cx="2.86567" cy="3" rx="2.86567" ry="3" fill="white"/>
<ellipse cx="21.9702" cy="3" rx="2.86567" ry="3" fill="white"/>
</symbol>
</defs>
</svg>
